<svg width="160" height="90" viewBox="0 0 160 90" fill="none" xmlns="http://www.w3.org/2000/svg">
<path d="M8.19868 69.498C6.60701 69.498 5.54643 68.4268 5.19284 66.6422L2.01018 53.7905C1.83334 53.4334 1.83334 52.8979 1.83334 52.5409C1.83334 52.0054 2.01018 51.47 2.54059 51.113C2.8942 50.756 3.42465 50.5776 4.13193 50.5776C5.36959 50.5776 6.07693 51.113 6.25368 52.3625L8.72868 64.1431L11.9113 52.3625C12.265 51.113 13.149 50.5776 14.3863 50.5776C15.8008 50.5776 16.6849 51.113 16.8613 52.3625L20.2208 64.1431L22.5207 52.7192C22.8743 51.2914 23.5816 50.5776 24.8193 50.5776C25.5265 50.5776 26.0571 50.756 26.4109 51.113C26.7646 51.47 27.1182 52.0055 27.1182 52.5409C27.1182 52.8979 26.9413 53.4334 26.9413 53.7904L23.4051 66.6421C23.2283 67.713 22.8747 68.2484 22.521 68.7838C21.8489 69.2574 21.0446 69.5073 20.2224 69.4978C18.8079 69.4978 17.7474 68.6052 17.2166 67.1773L14.3872 56.4678L11.5583 66.8205C11.0277 68.6054 9.96668 69.498 8.19868 69.498ZM41.6167 50.5776C43.2083 50.5776 44.2689 51.2916 44.7993 52.898L49.9269 66.2851C50.1038 66.8206 50.2806 67.1776 50.2806 67.5347C50.2806 68.0701 49.9269 68.6055 49.5733 68.9625C49.0429 69.3195 48.5124 69.498 47.9817 69.4981C46.9208 69.4981 46.0367 68.7841 45.5067 67.5347L44.7994 65.2141H37.9035L37.0194 67.5347C36.6658 68.784 35.9585 69.4981 34.8977 69.4981C34.1904 69.4981 33.6598 69.3196 33.306 68.9625C32.9524 68.6055 32.7756 68.0701 32.7756 67.5347C32.7756 66.9993 32.7756 66.6422 32.9524 66.2851L38.08 53.2549C38.7876 51.47 40.025 50.5776 41.6167 50.5776ZM41.4398 55.0399L39.1412 61.6443H43.5615L41.4398 55.0399H41.4398ZM58.0604 53.612C58.0604 51.6486 58.7677 50.5776 60.359 50.5776C61.7735 50.5776 62.4808 51.6486 62.4808 53.612V65.3926H66.3707C68.4924 65.3926 69.5534 65.9281 69.5534 67.356C69.5534 68.6055 68.4924 69.1409 66.3707 69.1409H61.0662C60.0053 69.1409 59.1212 68.9624 58.7676 68.6054C58.2372 68.2484 58.0604 67.5346 58.0604 66.6421L58.0604 53.612ZM81.5771 66.4635C81.5771 68.4268 80.8699 69.498 79.2785 69.498C77.864 69.498 77.1568 68.4268 77.1568 66.4635V53.612C77.1568 51.6486 77.864 50.5776 79.2785 50.5776C80.8702 50.5776 81.5771 51.6486 81.5771 53.612V66.4635ZM90.4179 60.0378C90.4179 57.3603 91.3019 55.0399 92.8929 53.2548C94.661 51.47 96.9595 50.5776 99.7885 50.5776C102.794 50.5776 105.093 51.4701 106.861 53.2549C108.629 55.0397 109.337 57.1819 109.337 60.0378C109.337 62.7153 108.629 65.0357 106.861 66.8206C105.093 68.6055 102.794 69.4981 99.7885 69.4981C96.9595 69.4981 94.6609 68.6056 92.8928 66.8206C91.3015 65.0359 90.4174 62.7152 90.4174 60.0378H90.4179ZM95.1918 60.0378C95.1918 61.6443 95.5454 62.8937 96.2527 63.7862C97.1368 65.0356 98.3744 65.571 99.7889 65.571C101.381 65.571 102.618 65.0356 103.502 63.7862C104.209 62.8936 104.563 61.6441 104.563 60.0378C104.563 58.4314 104.209 57.1819 103.502 56.2893C102.618 55.0399 101.38 54.5044 99.7889 54.5044C98.1977 54.5044 97.1368 55.0399 96.2527 56.2893C95.5454 57.1818 95.1917 58.4313 95.1917 60.0378H95.1918ZM120.653 54.6828C119.061 54.6828 118.001 54.6828 117.647 54.5044C116.41 54.3259 115.702 53.7904 115.702 52.7193C115.702 51.47 116.763 50.756 118.885 50.756H126.842C128.963 50.756 130.024 51.47 130.024 52.7193C130.024 53.7904 129.317 54.3259 128.256 54.5044C127.726 54.6828 126.842 54.6828 125.073 54.6828V66.4635C125.073 68.4268 124.366 69.498 122.952 69.498C121.36 69.498 120.653 68.4268 120.653 66.4635V54.6828Z" fill="#082679"/>
<path fill-rule="evenodd" clip-rule="evenodd" d="M124.551 37.12C124.55 36.5142 124.729 35.9218 125.065 35.4177C125.401 34.9137 125.879 34.5207 126.439 34.2886C126.998 34.0564 127.614 33.9955 128.208 34.1136C128.802 34.2317 129.348 34.5234 129.776 34.9519C130.205 35.3803 130.496 35.9262 130.614 36.5205C130.732 37.1147 130.671 37.7305 130.439 38.29C130.206 38.8495 129.813 39.3275 129.309 39.6634C128.805 39.9993 128.212 40.1781 127.607 40.1771H124.551V37.12ZM133.221 37.1468C133.214 35.6577 132.62 34.2314 131.567 33.1784C130.514 32.1255 129.087 31.531 127.598 31.5244C126.681 31.5247 125.779 31.752 124.971 32.1859C125.264 31.5115 125.683 30.8989 126.204 30.3803C127.011 29.5766 128.038 29.0298 129.156 28.8088C130.273 28.5877 131.431 28.7024 132.483 29.1383C133.536 29.5741 134.435 30.3118 135.069 31.2582C135.703 32.2045 136.043 33.3174 136.045 34.4564V40.2217L132.308 40.2037C132.904 39.2955 133.221 38.233 133.221 37.1467V37.1468ZM138.548 40.2218V34.4562C138.551 32.9346 138.134 31.4417 137.342 30.1422C136.551 28.8427 135.415 27.787 134.062 27.0918C132.708 26.3965 131.189 26.0886 129.672 26.202C128.154 26.3153 126.697 26.8456 125.462 27.7343C125.873 26.9501 126.4 26.2328 127.025 25.6069C128.224 24.4129 129.749 23.6004 131.408 23.2718C133.068 22.9431 134.787 23.1131 136.351 23.7603C137.914 24.4074 139.25 25.5028 140.192 26.9083C141.133 28.3138 141.637 29.9666 141.641 31.6583L141.649 41.6697C141.651 42.0343 141.675 42.3985 141.721 42.7602C141.99 44.7462 142.97 46.5674 144.479 47.8869C145.987 49.2065 147.923 49.9351 149.927 49.9381C151.652 49.9397 153.335 49.3987 154.735 48.3917C154.326 49.1742 153.802 49.8913 153.181 50.5191C151.983 51.714 150.457 52.5273 148.797 52.8564C147.136 53.1856 145.416 53.0159 143.852 52.3687C142.288 51.7215 140.951 50.6258 140.009 49.2197C139.066 47.8137 138.562 46.1601 138.558 44.4676L138.548 40.2218ZM144.162 35.9044L147.898 35.9133C147.214 36.955 146.896 38.1952 146.994 39.4378C147.093 40.6804 147.603 41.8548 148.444 42.7753C149.284 43.6959 150.407 44.3102 151.636 44.5211C152.865 44.7321 154.128 44.5277 155.228 43.9403C154.934 44.6119 154.519 45.2239 154.004 45.7459C153.197 46.552 152.17 47.1009 151.052 47.3232C149.934 47.5456 148.775 47.4314 147.721 46.9952C146.668 46.5589 145.768 45.8201 145.134 44.8723C144.501 43.9244 144.162 42.8099 144.162 41.6698L144.162 35.9044ZM144.144 33.3925V31.6583C144.132 28.7296 142.961 25.9247 140.886 23.8578C138.811 21.7909 136.002 20.6304 133.073 20.6304C130.144 20.6304 127.335 21.7909 125.26 23.8578C123.185 25.9247 122.013 28.7296 122.002 31.6583V40.5524C122.002 42.2597 122.967 42.7333 124.371 42.7333H136.055V44.4674C136.066 47.3961 137.237 50.201 139.312 52.268C141.387 54.3349 144.197 55.4954 147.125 55.4954C150.054 55.4954 152.864 54.3349 154.939 52.268C157.013 50.201 158.185 47.3961 158.196 44.4674V39.015L158.204 38.9971V35.6451C158.204 34.5724 157.579 33.3925 155.862 33.3925H144.144ZM152.591 42.072C151.779 42.072 151.001 41.7494 150.426 41.1753C149.852 40.6012 149.53 39.8225 149.53 39.0105C149.53 38.1985 149.852 37.4198 150.426 36.8457C151.001 36.2715 151.779 35.949 152.591 35.949H155.648V39.006C155.649 39.8178 155.327 40.5968 154.754 41.1717C154.181 41.7466 153.403 42.0705 152.591 42.072V42.072Z" fill="#082679"/>
<path d="M26.1313 38H24.9062V29.7607H20.3486V38H19.1299V28.7578H26.1313V38ZM33.9707 34.6421C33.9707 35.6873 33.7316 36.5295 33.2534 37.1685C32.7752 37.8075 32.1278 38.127 31.311 38.127C30.4774 38.127 29.8215 37.8625 29.3433 37.3335V40.6406H28.1689V31.1318H29.2417L29.2988 31.8936C29.777 31.3011 30.4414 31.0049 31.292 31.0049C32.1172 31.0049 32.7689 31.3159 33.2471 31.938C33.7295 32.5601 33.9707 33.4255 33.9707 34.5342V34.6421ZM32.7964 34.5088C32.7964 33.7344 32.6313 33.1229 32.3013 32.6743C31.9712 32.2257 31.5184 32.0015 30.9429 32.0015C30.2319 32.0015 29.6987 32.3167 29.3433 32.9473V36.229C29.6945 36.8553 30.2319 37.1685 30.9556 37.1685C31.5184 37.1685 31.9648 36.9463 32.2949 36.502C32.6292 36.0534 32.7964 35.389 32.7964 34.5088ZM39.9121 31.1318H41.0864V38H39.9121V32.9917L36.7446 38H35.5703V31.1318H36.7446V36.1465L39.9121 31.1318ZM51.814 38H50.6396V32.103H47.4785V38H46.2979V31.1318H51.814V38ZM53.3882 34.5024C53.3882 33.8296 53.5194 33.2244 53.7817 32.687C54.0483 32.1496 54.4165 31.7349 54.8862 31.4429C55.3602 31.1509 55.8997 31.0049 56.5049 31.0049C57.4401 31.0049 58.1955 31.3286 58.771 31.9761C59.3507 32.6235 59.6406 33.4847 59.6406 34.5596V34.6421C59.6406 35.3107 59.5116 35.9116 59.2534 36.4448C58.9995 36.9738 58.6335 37.3864 58.1553 37.6826C57.6813 37.9788 57.1354 38.127 56.5176 38.127C55.5866 38.127 54.8312 37.8032 54.2515 37.1558C53.6759 36.5083 53.3882 35.6514 53.3882 34.585V34.5024ZM54.5688 34.6421C54.5688 35.4038 54.7445 36.0153 55.0957 36.4766C55.4512 36.9378 55.9251 37.1685 56.5176 37.1685C57.1143 37.1685 57.5882 36.9357 57.9395 36.4702C58.2907 36.0005 58.4663 35.3446 58.4663 34.5024C58.4663 33.7492 58.2865 33.1398 57.9268 32.6743C57.5713 32.2046 57.0973 31.9697 56.5049 31.9697C55.9251 31.9697 55.4575 32.2004 55.1021 32.6616C54.7466 33.1229 54.5688 33.783 54.5688 34.6421ZM60.5991 37.0415L61.0054 36.54C61.4624 35.9476 61.7227 35.0589 61.7861 33.874L61.894 31.1318H66.3184V37.0415H67.2007V40.0186H66.0264V38H61.2339V40.0186H60.0596L60.0659 37.0415H60.5991ZM61.9893 37.0415H65.144V32.2173H63.0303L62.9604 33.855C62.8885 35.2218 62.5648 36.284 61.9893 37.0415ZM68.5718 37.0415L68.978 36.54C69.4351 35.9476 69.6953 35.0589 69.7588 33.874L69.8667 31.1318H74.291V37.0415H75.1733V40.0186H73.999V38H69.2065V40.0186H68.0322L68.0386 37.0415H68.5718ZM69.9619 37.0415H73.1167V32.2173H71.0029L70.9331 33.855C70.8612 35.2218 70.5374 36.284 69.9619 37.0415ZM79.3247 38.127C78.3937 38.127 77.6362 37.8223 77.0522 37.2129C76.4683 36.5993 76.1763 35.7804 76.1763 34.7563V34.5405C76.1763 33.8592 76.3053 33.252 76.5635 32.7188C76.8258 32.1813 77.1898 31.7624 77.6553 31.4619C78.125 31.1572 78.6328 31.0049 79.1787 31.0049C80.0716 31.0049 80.7656 31.299 81.2607 31.8872C81.7559 32.4754 82.0034 33.3175 82.0034 34.4136V34.9023H77.3506C77.3675 35.5794 77.5643 36.1274 77.9409 36.5464C78.3218 36.9611 78.8042 37.1685 79.3882 37.1685C79.8029 37.1685 80.1541 37.0838 80.4419 36.9146C80.7297 36.7453 80.9814 36.521 81.1973 36.2417L81.9146 36.8003C81.339 37.6847 80.4757 38.127 79.3247 38.127ZM79.1787 31.9697C78.7048 31.9697 78.307 32.1432 77.9854 32.4902C77.6637 32.833 77.4648 33.3154 77.3887 33.9375H80.8291V33.8486C80.7952 33.252 80.6344 32.7907 80.3467 32.4648C80.0589 32.1348 79.6696 31.9697 79.1787 31.9697ZM89.1699 34.6421C89.1699 35.6873 88.9308 36.5295 88.4526 37.1685C87.9744 37.8075 87.327 38.127 86.5103 38.127C85.6766 38.127 85.0207 37.8625 84.5425 37.3335V40.6406H83.3682V31.1318H84.4409L84.498 31.8936C84.9762 31.3011 85.6406 31.0049 86.4912 31.0049C87.3164 31.0049 87.9681 31.3159 88.4463 31.938C88.9287 32.5601 89.1699 33.4255 89.1699 34.5342V34.6421ZM87.9956 34.5088C87.9956 33.7344 87.8306 33.1229 87.5005 32.6743C87.1704 32.2257 86.7176 32.0015 86.1421 32.0015C85.4312 32.0015 84.8979 32.3167 84.5425 32.9473V36.229C84.8937 36.8553 85.4312 37.1685 86.1548 37.1685C86.7176 37.1685 87.1641 36.9463 87.4941 36.502C87.8285 36.0534 87.9956 35.389 87.9956 34.5088ZM96.0444 35.0166H95.2192V38H94.0449V35.0166H93.2197L91.2964 38H89.811L92.2676 34.4453L90.0459 31.1318H91.4678L93.2388 33.9756H94.0449V31.1318H95.2192V33.9756H96.019L97.8027 31.1318H99.2246L96.9966 34.4517L99.4531 38H97.9678L96.0444 35.0166ZM102.659 35.0737H101.802V38H100.621V31.1318H101.802V34.0391H102.57L104.88 31.1318H106.302L103.585 34.4326L106.531 38H105.039L102.659 35.0737ZM110.289 38.127C109.358 38.127 108.6 37.8223 108.016 37.2129C107.432 36.5993 107.14 35.7804 107.14 34.7563V34.5405C107.14 33.8592 107.269 33.252 107.527 32.7188C107.79 32.1813 108.154 31.7624 108.619 31.4619C109.089 31.1572 109.597 31.0049 110.143 31.0049C111.035 31.0049 111.729 31.299 112.225 31.8872C112.72 32.4754 112.967 33.3175 112.967 34.4136V34.9023H108.314C108.331 35.5794 108.528 36.1274 108.905 36.5464C109.286 36.9611 109.768 37.1685 110.352 37.1685C110.767 37.1685 111.118 37.0838 111.406 36.9146C111.694 36.7453 111.945 36.521 112.161 36.2417L112.878 36.8003C112.303 37.6847 111.44 38.127 110.289 38.127ZM110.143 31.9697C109.669 31.9697 109.271 32.1432 108.949 32.4902C108.628 32.833 108.429 33.3154 108.353 33.9375H111.793V33.8486C111.759 33.252 111.598 32.7907 111.311 32.4648C111.023 32.1348 110.633 31.9697 110.143 31.9697Z" fill="#082679"/>
</svg>
